<svg width="43" height="42" viewBox="0 0 43 42" fill="none" xmlns="http://www.w3.org/2000/svg">
<g clip-path="url(#clip0)">
<path d="M21.6468 41.4698C33.0829 41.4698 42.3536 32.1991 42.3536 20.763C42.3536 9.32692 33.0829 0.0561523 21.6468 0.0561523C10.2107 0.0561523 0.939941 9.32692 0.939941 20.763C0.939941 32.1991 10.2107 41.4698 21.6468 41.4698Z" fill="#6DA544"/>
<path d="M21.6465 8.15887L38.7522 20.763L21.6465 33.3672L4.54089 20.763L21.6465 8.15887Z" fill="#FFDA44"/>
<path d="M21.6469 27.9654C25.6247 27.9654 28.8493 24.7408 28.8493 20.763C28.8493 16.7853 25.6247 13.5607 21.6469 13.5607C17.6692 13.5607 14.4446 16.7853 14.4446 20.763C14.4446 24.7408 17.6692 27.9654 21.6469 27.9654Z" fill="#F0F0F0"/>
<path d="M18.0454 20.3129C16.793 20.3129 15.5843 20.5034 14.4465 20.8568C14.4969 24.7911 17.7003 27.9654 21.6466 27.9654C24.0868 27.9654 26.2419 26.7508 27.5447 24.8943C25.3158 22.104 21.8861 20.3129 18.0454 20.3129Z" fill="#0052B4"/>
<path d="M28.7152 22.1429C28.8019 21.6961 28.8488 21.2351 28.8488 20.763C28.8488 16.7852 25.6241 13.5607 21.6464 13.5607C18.6784 13.5607 16.1305 15.3564 15.0278 17.9203C16.0025 17.7184 17.0116 17.612 18.0453 17.612C22.2285 17.6119 26.0128 19.3508 28.7152 22.1429Z" fill="#0052B4"/>
</g>
<defs>
<clipPath id="clip0">
<rect width="41.4137" height="41.4137" fill="white" transform="translate(0.939941 0.0561523)"/>
</clipPath>
</defs>
</svg>
