<svg width="42" height="42" viewBox="0 0 42 42" fill="none" xmlns="http://www.w3.org/2000/svg">
<g clip-path="url(#clip0)">
<path d="M20.6485 41.6385C32.0214 41.6385 41.2409 32.3678 41.2409 20.9317C41.2409 9.49562 32.0214 0.224854 20.6485 0.224854C9.27558 0.224854 0.0560303 9.49562 0.0560303 20.9317C0.0560303 32.3678 9.27558 41.6385 20.6485 41.6385Z" fill="#F0F0F0"/>
<path d="M19.7529 20.9316H41.2407C41.2407 19.0626 40.9929 17.2521 40.5313 15.5298H19.7529V20.9316Z" fill="#D80027"/>
<path d="M19.7529 10.1281H38.2182C36.9577 8.05972 35.3459 6.23145 33.4667 4.72632H19.7529V10.1281Z" fill="#D80027"/>
<path d="M20.6484 41.6386C25.4948 41.6386 29.9493 39.9542 33.4669 37.1371H7.82996C11.3476 39.9542 15.802 41.6386 20.6484 41.6386Z" fill="#D80027"/>
<path d="M3.07829 31.7353H38.2183C39.2303 30.0748 40.0152 28.2597 40.5314 26.3335H0.765259C1.28144 28.2597 2.06628 30.0748 3.07829 31.7353Z" fill="#D80027"/>
<path d="M9.59484 3.45852H11.4714L9.72587 4.73369L10.3926 6.79701L8.64718 5.52184L6.90173 6.79701L7.47767 5.01452C5.9408 6.30183 4.59377 7.81003 3.48371 9.49052H4.08499L2.97388 10.3022C2.80078 10.5926 2.63475 10.8876 2.47564 11.1869L3.00622 12.829L2.01633 12.1058C1.77027 12.63 1.5452 13.1661 1.3429 13.7133L1.92745 15.5225H4.08499L2.33946 16.7977L3.00622 18.861L1.26077 17.5858L0.215219 18.3497C0.110568 19.1956 0.0560303 20.0572 0.0560303 20.9317H20.6485C20.6485 9.4957 20.6485 8.14749 20.6485 0.224854C16.5805 0.224854 12.7884 1.41145 9.59484 3.45852ZM10.3926 18.861L8.64718 17.5858L6.90173 18.861L7.56849 16.7977L5.82296 15.5225H7.9805L8.64718 13.4592L9.31386 15.5225H11.4714L9.72587 16.7977L10.3926 18.861ZM9.72587 10.7657L10.3926 12.829L8.64718 11.5538L6.90173 12.829L7.56849 10.7657L5.82296 9.49052H7.9805L8.64718 7.4272L9.31386 9.49052H11.4714L9.72587 10.7657ZM17.779 18.861L16.0336 17.5858L14.2881 18.861L14.9549 16.7977L13.2094 15.5225H15.3669L16.0336 13.4592L16.7003 15.5225H18.8578L17.1123 16.7977L17.779 18.861ZM17.1123 10.7657L17.779 12.829L16.0336 11.5538L14.2881 12.829L14.9549 10.7657L13.2094 9.49052H15.3669L16.0336 7.4272L16.7003 9.49052H18.8578L17.1123 10.7657ZM17.1123 4.73369L17.779 6.79701L16.0336 5.52184L14.2881 6.79701L14.9549 4.73369L13.2094 3.45852H15.3669L16.0336 1.39519L16.7003 3.45852H18.8578L17.1123 4.73369Z" fill="#0052B4"/>
</g>
<defs>
<clipPath id="clip0">
<rect width="41.1849" height="41.4137" fill="white" transform="translate(0.0560303 0.224854)"/>
</clipPath>
</defs>
</svg>
